<svg xmlns="http://www.w3.org/2000/svg" xmlns:xlink="http://www.w3.org/1999/xlink" width="50" zoomAndPan="magnify" viewBox="0 0 37.5 37.499999" height="50" preserveAspectRatio="xMidYMid meet" version="1.0"><defs><clipPath id="id1"><path d="M 3.75 0 L 35.25 0 L 35.25 36.496094 L 3.75 36.496094 Z M 3.75 0 " clip-rule="nonzero"/></clipPath></defs><g clip-path="url(#id1)"><path fill="#264de4" d="M 19.488281 36.496094 L 6.636719 32.882812 L 3.773438 0.339844 L 35.238281 0.339844 L 32.375 32.875 Z M 19.488281 36.496094 " fill-opacity="1" fill-rule="nonzero"/></g><path fill="#2965f1" d="M 29.917969 30.804688 L 32.371094 3 L 19.507812 3 L 19.507812 33.730469 Z M 29.917969 30.804688 " fill-opacity="1" fill-rule="nonzero"/><path fill="#ebebeb" d="M 10.335938 15.070312 L 10.691406 19.0625 L 19.507812 19.0625 L 19.507812 15.070312 Z M 10.335938 15.070312 " fill-opacity="1" fill-rule="nonzero"/><path fill="#ebebeb" d="M 9.628906 6.992188 L 9.984375 10.984375 L 19.507812 10.984375 L 19.507812 6.992188 Z M 9.628906 6.992188 " fill-opacity="1" fill-rule="nonzero"/><path fill="#ebebeb" d="M 19.507812 25.433594 L 19.488281 25.441406 L 15.101562 24.238281 L 14.820312 21.054688 L 10.867188 21.054688 L 11.417969 27.324219 L 19.488281 29.59375 L 19.507812 29.585938 Z M 19.507812 25.433594 " fill-opacity="1" fill-rule="nonzero"/><path fill="#ffffff" d="M 28.652344 15.070312 L 29.359375 6.992188 L 19.492188 6.992188 L 19.492188 10.984375 L 25.042969 10.984375 L 24.6875 15.070312 L 19.492188 15.070312 L 19.492188 19.0625 L 24.34375 19.0625 L 23.886719 24.238281 L 19.492188 25.4375 L 19.492188 29.589844 L 27.570312 27.324219 L 27.628906 26.648438 L 28.554688 16.140625 Z M 28.652344 15.070312 " fill-opacity="1" fill-rule="nonzero"/></svg>