<svg xmlns="http://www.w3.org/2000/svg" xmlns:xlink="http://www.w3.org/1999/xlink" width="50" zoomAndPan="magnify" viewBox="0 0 37.5 37.499999" height="50" preserveAspectRatio="xMidYMid meet" version="1.0"><defs><clipPath id="id1"><path d="M 2.863281 1 L 34.363281 1 L 34.363281 37.007812 L 2.863281 37.007812 Z M 2.863281 1 " clip-rule="nonzero"/></clipPath></defs><g clip-path="url(#id1)"><path fill="#e44d26" d="M 34.351562 1.53125 L 31.484375 34.066406 L 18.597656 37.6875 L 5.746094 34.074219 L 2.882812 1.53125 Z M 34.351562 1.53125 " fill-opacity="1" fill-rule="nonzero"/></g><path fill="#f16529" d="M 18.617188 34.921875 L 29.03125 31.996094 L 31.480469 4.191406 L 18.617188 4.191406 Z M 18.617188 34.921875 " fill-opacity="1" fill-rule="nonzero"/><path fill="#ebebeb" d="M 13.046875 12.175781 L 18.617188 12.175781 L 18.617188 8.183594 L 8.738281 8.183594 L 8.832031 9.253906 L 9.800781 20.253906 L 18.617188 20.253906 L 18.617188 16.261719 L 13.40625 16.261719 Z M 13.046875 12.175781 " fill-opacity="1" fill-rule="nonzero"/><path fill="#ebebeb" d="M 13.933594 22.246094 L 9.976562 22.246094 L 10.53125 28.515625 L 18.601562 30.785156 L 18.617188 30.777344 L 18.617188 26.625 L 18.601562 26.632812 L 14.214844 25.429688 Z M 13.933594 22.246094 " fill-opacity="1" fill-rule="nonzero"/><path fill="#ffffff" d="M 18.605469 20.253906 L 23.457031 20.253906 L 23 25.429688 L 18.605469 26.628906 L 18.605469 30.78125 L 26.679688 28.515625 L 26.738281 27.839844 L 27.667969 17.332031 L 27.761719 16.261719 L 18.605469 16.261719 Z M 18.605469 20.253906 " fill-opacity="1" fill-rule="nonzero"/><path fill="#ffffff" d="M 18.605469 12.164062 L 18.605469 12.175781 L 28.121094 12.175781 L 28.199219 11.277344 L 28.378906 9.253906 L 28.472656 8.183594 L 18.605469 8.183594 Z M 18.605469 12.164062 " fill-opacity="1" fill-rule="nonzero"/></svg>