<svg xmlns="http://www.w3.org/2000/svg" xmlns:xlink="http://www.w3.org/1999/xlink" width="50" zoomAndPan="magnify" viewBox="0 0 37.5 37.499999" height="50" preserveAspectRatio="xMidYMid meet" version="1.0"><defs><clipPath id="id1"><path d="M 1.238281 1.238281 L 36.488281 1.238281 L 36.488281 36.488281 L 1.238281 36.488281 Z M 1.238281 1.238281 " clip-rule="nonzero"/></clipPath></defs><g clip-path="url(#id1)"><path fill="#f7df1e" d="M 1.238281 1.238281 L 36.488281 1.238281 L 36.488281 36.488281 L 1.238281 36.488281 Z M 1.238281 1.238281 " fill-opacity="1" fill-rule="nonzero"/></g><path fill="#000000" d="M 10.507812 30.695312 L 13.203125 29.0625 C 13.722656 29.984375 14.199219 30.765625 15.332031 30.765625 C 16.421875 30.765625 17.109375 30.339844 17.109375 28.683594 L 17.109375 17.421875 L 20.417969 17.421875 L 20.417969 28.730469 C 20.417969 32.160156 18.410156 33.722656 15.476562 33.722656 C 12.824219 33.722656 11.285156 32.351562 10.507812 30.695312 " fill-opacity="1" fill-rule="nonzero"/><path fill="#000000" d="M 22.21875 30.339844 L 24.917969 28.777344 C 25.628906 29.9375 26.550781 30.789062 28.183594 30.789062 C 29.554688 30.789062 30.429688 30.105469 30.429688 29.15625 C 30.429688 28.019531 29.53125 27.617188 28.015625 26.957031 L 27.1875 26.601562 C 24.796875 25.582031 23.214844 24.308594 23.214844 21.609375 C 23.214844 19.125 25.105469 17.230469 28.066406 17.230469 C 30.171875 17.230469 31.683594 17.964844 32.773438 19.882812 L 30.195312 21.539062 C 29.625 20.519531 29.011719 20.117188 28.066406 20.117188 C 27.09375 20.117188 26.476562 20.734375 26.476562 21.539062 C 26.476562 22.53125 27.09375 22.933594 28.511719 23.550781 L 29.339844 23.902344 C 32.15625 25.109375 33.742188 26.339844 33.742188 29.109375 C 33.742188 32.089844 31.402344 33.722656 28.253906 33.722656 C 25.175781 33.722656 23.191406 32.257812 22.21875 30.339844 " fill-opacity="1" fill-rule="nonzero"/></svg>