<svg xmlns="http://www.w3.org/2000/svg" xmlns:xlink="http://www.w3.org/1999/xlink" width="50" zoomAndPan="magnify" viewBox="0 0 37.5 37.499999" height="50" preserveAspectRatio="xMidYMid meet" version="1.0"><defs><clipPath id="id1"><path d="M 0 5 L 37.007812 5 L 37.007812 33 L 0 33 Z M 0 5 " clip-rule="nonzero"/></clipPath></defs><g clip-path="url(#id1)"><path fill="#cf649a" d="M 32.210938 21.046875 C 30.910156 21.054688 29.789062 21.367188 28.84375 21.832031 C 28.496094 21.140625 28.148438 20.539062 28.089844 20.089844 C 28.023438 19.566406 27.945312 19.25 28.023438 18.625 C 28.105469 18 28.46875 17.117188 28.46875 17.042969 C 28.460938 16.976562 28.386719 16.660156 27.640625 16.652344 C 26.894531 16.644531 26.246094 16.796875 26.175781 16.992188 C 26.046875 17.355469 25.941406 17.726562 25.863281 18.101562 C 25.730469 18.785156 24.367188 21.203125 23.59375 22.472656 C 23.335938 21.976562 23.121094 21.542969 23.078125 21.195312 C 23.011719 20.671875 22.929688 20.351562 23.011719 19.730469 C 23.089844 19.105469 23.453125 18.21875 23.453125 18.148438 C 23.445312 18.082031 23.375 17.761719 22.625 17.753906 C 21.878906 17.75 21.234375 17.902344 21.160156 18.097656 C 21.089844 18.292969 21.007812 18.757812 20.847656 19.207031 C 20.695312 19.65625 18.882812 23.691406 18.410156 24.742188 C 18.171875 25.28125 17.960938 25.707031 17.808594 26 C 17.65625 26.289062 17.800781 26.019531 17.789062 26.050781 L 17.585938 26.433594 L 17.585938 26.441406 C 17.484375 26.621094 17.375 26.796875 17.324219 26.796875 C 17.289062 26.796875 17.214844 26.308594 17.339844 25.644531 C 17.605469 24.242188 18.257812 22.058594 18.253906 21.980469 C 18.253906 21.941406 18.375 21.558594 17.832031 21.363281 C 17.300781 21.167969 17.113281 21.492188 17.070312 21.492188 C 17.027344 21.492188 16.988281 21.609375 16.988281 21.609375 C 16.988281 21.609375 17.578125 19.148438 15.863281 19.148438 C 14.789062 19.148438 13.3125 20.316406 12.578125 21.382812 L 8.878906 23.40625 L 8.796875 23.320312 C 6.722656 21.105469 2.886719 19.539062 3.046875 16.566406 C 3.105469 15.484375 3.480469 12.632812 10.417969 9.179688 C 16.097656 6.351562 20.644531 7.125 21.4375 8.851562 C 22.5625 11.320312 19.007812 15.902344 13.101562 16.566406 C 10.851562 16.820312 9.667969 15.949219 9.371094 15.621094 C 9.058594 15.28125 9.015625 15.265625 8.898438 15.332031 C 8.710938 15.433594 8.828125 15.738281 8.898438 15.921875 C 9.074219 16.378906 9.800781 17.191406 11.03125 17.597656 C 12.113281 17.953125 14.753906 18.148438 17.945312 16.914062 C 21.523438 15.527344 24.316406 11.683594 23.496094 8.46875 C 22.664062 5.199219 17.234375 4.125 12.105469 5.945312 C 9.050781 7.03125 5.75 8.730469 3.371094 10.957031 C 0.535156 13.597656 0.0859375 15.90625 0.273438 16.863281 C 0.933594 20.28125 5.640625 22.507812 7.527344 24.152344 L 7.265625 24.300781 C 6.324219 24.761719 2.734375 26.644531 1.832031 28.628906 C 0.816406 30.878906 1.992188 32.496094 2.777344 32.714844 C 5.199219 33.390625 7.679688 32.179688 9.023438 30.183594 C 10.359375 28.1875 10.199219 25.597656 9.582031 24.414062 L 9.558594 24.371094 L 10.300781 23.9375 C 10.777344 23.652344 11.25 23.390625 11.664062 23.167969 C 11.429688 23.800781 11.265625 24.546875 11.175781 25.632812 C 11.074219 26.910156 11.597656 28.566406 12.289062 29.21875 C 12.59375 29.5 12.953125 29.507812 13.179688 29.507812 C 13.976562 29.507812 14.339844 28.847656 14.738281 28.058594 C 15.234375 27.09375 15.667969 25.976562 15.667969 25.976562 C 15.667969 25.976562 15.125 29 16.613281 29 C 17.15625 29 17.699219 28.296875 17.945312 27.933594 L 17.945312 27.941406 C 17.945312 27.941406 17.960938 27.917969 17.988281 27.867188 C 18.046875 27.78125 18.078125 27.730469 18.078125 27.730469 L 18.078125 27.714844 C 18.292969 27.339844 18.78125 26.476562 19.507812 25.046875 C 20.441406 23.203125 21.34375 20.898438 21.34375 20.898438 C 21.34375 20.898438 21.429688 21.460938 21.699219 22.390625 C 21.855469 22.941406 22.207031 23.542969 22.472656 24.132812 L 22.125 24.609375 L 22.132812 24.617188 C 21.945312 24.863281 21.757812 25.105469 21.558594 25.34375 C 20.820312 26.230469 19.933594 27.238281 19.820312 27.527344 C 19.679688 27.871094 19.710938 28.121094 19.976562 28.324219 C 20.175781 28.472656 20.523438 28.5 20.890625 28.472656 C 21.558594 28.425781 22.023438 28.261719 22.257812 28.160156 C 22.675781 28.007812 23.070312 27.804688 23.429688 27.542969 C 24.15625 27.003906 24.597656 26.242188 24.554688 25.226562 C 24.535156 24.667969 24.351562 24.117188 24.128906 23.59375 L 24.324219 23.304688 C 25.46875 21.628906 26.355469 19.785156 26.355469 19.785156 C 26.355469 19.785156 26.441406 20.351562 26.710938 21.28125 C 26.847656 21.753906 27.125 22.265625 27.371094 22.773438 C 26.296875 23.652344 25.621094 24.667969 25.390625 25.335938 C 24.960938 26.570312 25.296875 27.128906 25.925781 27.257812 C 26.210938 27.316406 26.617188 27.1875 26.921875 27.054688 C 27.296875 26.933594 27.757812 26.722656 28.175781 26.410156 C 28.902344 25.871094 29.597656 25.125 29.5625 24.117188 C 29.539062 23.652344 29.417969 23.195312 29.25 22.761719 C 30.164062 22.382812 31.347656 22.164062 32.847656 22.347656 C 36.078125 22.722656 36.714844 24.742188 36.59375 25.582031 C 36.46875 26.421875 35.792969 26.886719 35.570312 27.03125 C 35.34375 27.171875 35.269531 27.222656 35.292969 27.324219 C 35.320312 27.476562 35.421875 27.46875 35.621094 27.4375 C 35.886719 27.394531 37.316406 26.75 37.375 25.195312 C 37.460938 23.203125 35.570312 21.027344 32.210938 21.046875 Z M 7.3125 29.441406 C 6.246094 30.613281 4.742188 31.054688 4.105469 30.675781 C 3.414062 30.277344 3.683594 28.558594 4.996094 27.316406 C 5.796875 26.5625 6.832031 25.867188 7.515625 25.4375 L 8.175781 25.039062 C 8.21875 25.007812 8.246094 24.996094 8.246094 24.996094 C 8.300781 24.964844 8.355469 24.929688 8.414062 24.894531 C 8.902344 26.664062 8.4375 28.214844 7.3125 29.441406 Z M 15.109375 24.140625 C 14.742188 25.046875 13.957031 27.375 13.484375 27.246094 C 13.078125 27.136719 12.832031 25.371094 13.40625 23.632812 C 13.695312 22.753906 14.3125 21.707031 14.675781 21.300781 C 15.265625 20.648438 15.902344 20.433594 16.0625 20.699219 C 16.25 21.046875 15.34375 23.574219 15.109375 24.140625 Z M 21.546875 27.214844 C 21.386719 27.296875 21.242188 27.355469 21.175781 27.308594 C 21.125 27.28125 21.242188 27.171875 21.242188 27.171875 C 21.242188 27.171875 22.046875 26.308594 22.367188 25.910156 L 22.996094 25.105469 L 22.996094 25.191406 C 22.996094 26.234375 21.996094 26.933594 21.546875 27.214844 Z M 26.507812 26.082031 C 26.390625 25.996094 26.40625 25.726562 26.796875 24.886719 C 26.949219 24.554688 27.300781 23.992188 27.902344 23.464844 C 27.972656 23.683594 28.015625 23.894531 28.011719 24.089844 C 28.003906 25.394531 27.074219 25.878906 26.507812 26.082031 Z M 26.507812 26.082031 " fill-opacity="1" fill-rule="nonzero"/></g></svg>